<?xml version="1.0" encoding="UTF-8" standalone="no"?>
<!DOCTYPE svg PUBLIC "-//W3C//DTD SVG 1.1//EN"
 "http://www.w3.org/Graphics/SVG/1.1/DTD/svg11.dtd">
<!-- Generated by graphviz version 2.50.0 (0)
 -->
<!-- Title: G Pages: 1 -->
<svg width="913pt" height="290pt"
 viewBox="0.00 0.00 912.73 290.00" xmlns="http://www.w3.org/2000/svg" xmlns:xlink="http://www.w3.org/1999/xlink">
<g id="graph0" class="graph" transform="scale(1 1) rotate(0) translate(4 286)">
<title>G</title>
<polygon fill="white" stroke="transparent" points="-4,4 -4,-286 908.73,-286 908.73,4 -4,4"/>
<g id="clust1" class="cluster">
<title>cluster_file_one.py</title>
<polygon fill="none" stroke="black" points="8,-199 8,-274 511.06,-274 511.06,-199 8,-199"/>
<text text-anchor="middle" x="259.53" y="-258.8" font-family="Times,serif" font-size="14.00">file_one.py</text>
</g>
<g id="clust2" class="cluster">
<title>cluster_file_three.py</title>
<polygon fill="none" stroke="black" points="532.36,-62 532.36,-137 896.73,-137 896.73,-62 532.36,-62"/>
<text text-anchor="middle" x="714.54" y="-121.8" font-family="Times,serif" font-size="14.00">file_three.py</text>
</g>
<g id="clust3" class="cluster">
<title>cluster_file_two.py</title>
<polygon fill="none" stroke="black" points="179.19,-8 179.19,-191 512.36,-191 512.36,-8 179.19,-8"/>
<text text-anchor="middle" x="345.77" y="-175.8" font-family="Times,serif" font-size="14.00">file_two.py</text>
</g>
<!-- file_one.py##func_one -->
<g id="node1" class="node">
<title>file_one.py##func_one</title>
<ellipse fill="none" stroke="black" cx="345.77" cy="-225" rx="157.07" ry="18"/>
<text text-anchor="middle" x="345.77" y="-221.3" font-family="Times,serif" font-size="14.00">file_one.py##function func_one</text>
</g>
<!-- file_one.py# -->
<g id="node2" class="node">
<title>file_one.py#</title>
<ellipse fill="none" stroke="black" cx="83.59" cy="-225" rx="67.69" ry="18"/>
<text text-anchor="middle" x="83.59" y="-221.3" font-family="Times,serif" font-size="14.00">file_one.py#</text>
</g>
<!-- file_one.py#&#45;&gt;file_one.py##func_one -->
<g id="edge2" class="edge">
<title>file_one.py#&#45;&gt;file_one.py##func_one</title>
<path fill="none" stroke="black" d="M151.26,-225C159.83,-225 168.88,-225 178.21,-225"/>
<polygon fill="black" stroke="black" points="178.43,-228.5 188.43,-225 178.43,-221.5 178.43,-228.5"/>
</g>
<!-- file_two.py##func_two -->
<g id="node4" class="node">
<title>file_two.py##func_two</title>
<ellipse fill="none" stroke="black" cx="345.77" cy="-142" rx="158.67" ry="18"/>
<text text-anchor="middle" x="345.77" y="-138.3" font-family="Times,serif" font-size="14.00">file_two.py##function func_two</text>
</g>
<!-- file_one.py#&#45;&gt;file_two.py##func_two -->
<g id="edge1" class="edge">
<title>file_one.py#&#45;&gt;file_two.py##func_two</title>
<path fill="none" stroke="black" d="M118.34,-209.52C155.4,-195.68 216.19,-175.77 265.46,-161.03"/>
<polygon fill="black" stroke="black" points="266.56,-164.36 275.15,-158.16 264.57,-157.65 266.56,-164.36"/>
</g>
<!-- file_one.py#&#45;&gt;file_two.py##func_two -->
<g id="edge3" class="edge">
<title>file_one.py#&#45;&gt;file_two.py##func_two</title>
<path fill="none" stroke="black" d="M136.93,-213.84C183.38,-200.68 250.73,-179.16 296.05,-162.95"/>
<polygon fill="black" stroke="black" points="297.44,-166.16 305.66,-159.47 295.06,-159.58 297.44,-166.16"/>
</g>
<!-- file_three.py##func_three -->
<g id="node3" class="node">
<title>file_three.py##func_three</title>
<ellipse fill="none" stroke="black" cx="714.54" cy="-88" rx="174.37" ry="18"/>
<text text-anchor="middle" x="714.54" y="-84.3" font-family="Times,serif" font-size="14.00">file_three.py##function func_three</text>
</g>
<!-- file_two.py# -->
<g id="node5" class="node">
<title>file_two.py#</title>
<ellipse fill="none" stroke="black" cx="345.77" cy="-88" rx="68.49" ry="18"/>
<text text-anchor="middle" x="345.77" y="-84.3" font-family="Times,serif" font-size="14.00">file_two.py#</text>
</g>
<!-- file_two.py#&#45;&gt;file_three.py##func_three -->
<g id="edge4" class="edge">
<title>file_two.py#&#45;&gt;file_three.py##func_three</title>
<path fill="none" stroke="black" d="M411.08,-82.72C447.73,-81.65 495.57,-81.16 542.34,-81.26"/>
<polygon fill="black" stroke="black" points="542.6,-84.76 552.62,-81.3 542.63,-77.76 542.6,-84.76"/>
</g>
<!-- file_two.py#&#45;&gt;file_three.py##func_three -->
<g id="edge5" class="edge">
<title>file_two.py#&#45;&gt;file_three.py##func_three</title>
<path fill="none" stroke="black" d="M411.08,-93.28C447.73,-94.35 495.57,-94.84 542.34,-94.74"/>
<polygon fill="black" stroke="black" points="542.63,-98.24 552.62,-94.7 542.6,-91.24 542.63,-98.24"/>
</g>
<!-- file_two.py#func_two -->
<g id="node6" class="node">
<title>file_two.py#func_two</title>
<ellipse fill="none" stroke="black" cx="345.77" cy="-34" rx="109.68" ry="18"/>
<text text-anchor="middle" x="345.77" y="-30.3" font-family="Times,serif" font-size="14.00">file_two.py#func_two</text>
</g>
<!-- file_two.py#func_two&#45;&gt;file_three.py##func_three -->
<g id="edge6" class="edge">
<title>file_two.py#func_two&#45;&gt;file_three.py##func_three</title>
<path fill="none" stroke="black" d="M428.17,-45.98C479.84,-53.59 547.33,-63.53 603.71,-71.83"/>
<polygon fill="black" stroke="black" points="603.34,-75.31 613.74,-73.31 604.36,-68.39 603.34,-75.31"/>
</g>
</g>
</svg>
