<?xml version="1.0" encoding="UTF-8" standalone="no"?>
<!DOCTYPE svg PUBLIC "-//W3C//DTD SVG 1.1//EN"
 "http://www.w3.org/Graphics/SVG/1.1/DTD/svg11.dtd">
<!-- Generated by graphviz version 2.50.0 (0)
 -->
<!-- Title: G Pages: 1 -->
<svg width="702pt" height="236pt"
 viewBox="0.00 0.00 702.15 236.00" xmlns="http://www.w3.org/2000/svg" xmlns:xlink="http://www.w3.org/1999/xlink">
<g id="graph0" class="graph" transform="scale(1 1) rotate(0) translate(4 232)">
<title>G</title>
<polygon fill="white" stroke="transparent" points="-4,4 -4,-232 698.15,-232 698.15,4 -4,4"/>
<g id="clust2" class="cluster">
<title>cluster_file_two.py</title>
<polygon fill="none" stroke="black" points="163.59,-8 163.59,-137 399.27,-137 399.27,-8 163.59,-8"/>
<text text-anchor="middle" x="281.43" y="-121.8" font-family="Times,serif" font-size="14.00">file_two.py</text>
</g>
<g id="clust3" class="cluster">
<title>cluster_file_one.py</title>
<polygon fill="none" stroke="black" points="8,-145 8,-220 397.97,-220 397.97,-145 8,-145"/>
<text text-anchor="middle" x="202.99" y="-204.8" font-family="Times,serif" font-size="14.00">file_one.py</text>
</g>
<g id="clust4" class="cluster">
<title>cluster_file_three.py</title>
<polygon fill="none" stroke="black" points="419.27,-35 419.27,-164 686.15,-164 686.15,-35 419.27,-35"/>
<text text-anchor="middle" x="552.71" y="-148.8" font-family="Times,serif" font-size="14.00">file_three.py</text>
</g>
<!-- file_two.py -->
<g id="node1" class="node">
<title>file_two.py</title>
<ellipse fill="none" stroke="black" cx="281.43" cy="-88" rx="60.39" ry="18"/>
<text text-anchor="middle" x="281.43" y="-84.3" font-family="Times,serif" font-size="14.00">file_two.py</text>
</g>
<!-- file_three.py#func_three -->
<g id="node6" class="node">
<title>file_three.py#func_three</title>
<ellipse fill="none" stroke="black" cx="552.71" cy="-61" rx="125.38" ry="18"/>
<text text-anchor="middle" x="552.71" y="-57.3" font-family="Times,serif" font-size="14.00">file_three.py#func_three</text>
</g>
<!-- file_two.py&#45;&gt;file_three.py#func_three -->
<g id="edge4" class="edge">
<title>file_two.py&#45;&gt;file_three.py#func_three</title>
<path fill="none" stroke="black" d="M338.88,-82.34C368.01,-79.42 404.6,-75.75 439.19,-72.28"/>
<polygon fill="black" stroke="black" points="439.77,-75.74 449.37,-71.26 439.07,-68.78 439.77,-75.74"/>
</g>
<!-- file_two.py#func_two -->
<g id="node2" class="node">
<title>file_two.py#func_two</title>
<ellipse fill="none" stroke="black" cx="281.43" cy="-34" rx="109.68" ry="18"/>
<text text-anchor="middle" x="281.43" y="-30.3" font-family="Times,serif" font-size="14.00">file_two.py#func_two</text>
</g>
<!-- file_two.py#func_two&#45;&gt;file_three.py#func_three -->
<g id="edge1" class="edge">
<title>file_two.py#func_two&#45;&gt;file_three.py#func_three</title>
<path fill="none" stroke="black" d="M375.48,-43.33C396.08,-45.4 418.13,-47.61 439.41,-49.74"/>
<polygon fill="black" stroke="black" points="439.15,-53.23 449.45,-50.75 439.85,-46.27 439.15,-53.23"/>
</g>
<!-- file_one.py -->
<g id="node3" class="node">
<title>file_one.py</title>
<ellipse fill="none" stroke="black" cx="75.79" cy="-171" rx="59.59" ry="18"/>
<text text-anchor="middle" x="75.79" y="-167.3" font-family="Times,serif" font-size="14.00">file_one.py</text>
</g>
<!-- file_one.py&#45;&gt;file_two.py#func_two -->
<g id="edge2" class="edge">
<title>file_one.py&#45;&gt;file_two.py#func_two</title>
<path fill="none" stroke="black" d="M85.87,-153.04C99.34,-128.31 127.02,-84.18 163.59,-61 171.21,-56.17 179.6,-52.2 188.27,-48.94"/>
<polygon fill="black" stroke="black" points="189.46,-52.24 197.78,-45.68 187.18,-45.62 189.46,-52.24"/>
</g>
<!-- file_one.py#func_one -->
<g id="node4" class="node">
<title>file_one.py#func_one</title>
<ellipse fill="none" stroke="black" cx="281.43" cy="-171" rx="108.58" ry="18"/>
<text text-anchor="middle" x="281.43" y="-167.3" font-family="Times,serif" font-size="14.00">file_one.py#func_one</text>
</g>
<!-- file_one.py&#45;&gt;file_one.py#func_one -->
<g id="edge3" class="edge">
<title>file_one.py&#45;&gt;file_one.py#func_one</title>
<path fill="none" stroke="black" d="M135.69,-171C144.23,-171 153.27,-171 162.48,-171"/>
<polygon fill="black" stroke="black" points="162.54,-174.5 172.54,-171 162.54,-167.5 162.54,-174.5"/>
</g>
<!-- file_three.py -->
<g id="node5" class="node">
<title>file_three.py</title>
<ellipse fill="none" stroke="black" cx="552.71" cy="-115" rx="68.49" ry="18"/>
<text text-anchor="middle" x="552.71" y="-111.3" font-family="Times,serif" font-size="14.00">file_three.py</text>
</g>
</g>
</svg>
