<?xml version="1.0" encoding="UTF-8" standalone="no"?>
<!DOCTYPE svg PUBLIC "-//W3C//DTD SVG 1.1//EN"
 "http://www.w3.org/Graphics/SVG/1.1/DTD/svg11.dtd">
<!-- Generated by graphviz version 2.50.0 (0)
 -->
<!-- Pages: 1 -->
<svg width="1788pt" height="462pt"
 viewBox="0.00 0.00 1788.45 462.00" xmlns="http://www.w3.org/2000/svg" xmlns:xlink="http://www.w3.org/1999/xlink">
<g id="graph0" class="graph" transform="scale(1 1) rotate(0) translate(4 458)">
<polygon fill="white" stroke="transparent" points="-4,4 -4,-458 1784.45,-458 1784.45,4 -4,4"/>
<g id="clust2" class="cluster">
<title>cluster_file.py</title>
<polygon fill="none" stroke="black" points="8,-8 8,-446 1772.45,-446 1772.45,-8 8,-8"/>
<text text-anchor="middle" x="890.23" y="-430.8" font-family="Times,serif" font-size="14.00">file.py</text>
</g>
<g id="clust3" class="cluster">
<title>cluster_file.py#ThirdClass</title>
<polygon fill="none" stroke="black" points="16,-62 16,-415 811.43,-415 811.43,-62 16,-62"/>
<text text-anchor="middle" x="413.72" y="-399.8" font-family="Times,serif" font-size="14.00">file.py#ThirdClass</text>
</g>
<g id="clust4" class="cluster">
<title>cluster_file.py#ThirdClass#third_class_first_method</title>
<polygon fill="none" stroke="black" points="24,-170 24,-384 803.43,-384 803.43,-170 24,-170"/>
<text text-anchor="middle" x="413.72" y="-368.8" font-family="Times,serif" font-size="14.00">file.py#ThirdClass#third_class_first_method</text>
</g>
<g id="clust5" class="cluster">
<title>cluster_file.py#ThirdClass#third_class_first_method#ThirdClassNestedClass</title>
<polygon fill="none" stroke="black" points="32,-224 32,-353 795.43,-353 795.43,-224 32,-224"/>
<text text-anchor="middle" x="413.72" y="-337.8" font-family="Times,serif" font-size="14.00">file.py#ThirdClass#third_class_first_method#ThirdClassNestedClass</text>
</g>
<g id="clust6" class="cluster">
<title>cluster_file.py#FirstClass</title>
<polygon fill="none" stroke="black" points="1325.99,-119 1325.99,-302 1764.45,-302 1764.45,-119 1325.99,-119"/>
<text text-anchor="middle" x="1545.22" y="-286.8" font-family="Times,serif" font-size="14.00">file.py#FirstClass</text>
</g>
<g id="clust7" class="cluster">
<title>cluster_file.py#SecondClass</title>
<polygon fill="none" stroke="black" points="819.43,-201 819.43,-384 1305.99,-384 1305.99,-201 819.43,-201"/>
<text text-anchor="middle" x="1062.71" y="-368.8" font-family="Times,serif" font-size="14.00">file.py#SecondClass</text>
</g>
<!-- file.py -->
<g id="node1" class="node">
<title>file.py</title>
<ellipse fill="none" stroke="black" cx="413.72" cy="-34" rx="38.99" ry="18"/>
<text text-anchor="middle" x="413.72" y="-30.3" font-family="Times,serif" font-size="14.00">file.py</text>
</g>
<!-- file.py#ThirdClass -->
<g id="node2" class="node">
<title>file.py#ThirdClass</title>
<ellipse fill="none" stroke="black" cx="413.72" cy="-142" rx="96.68" ry="18"/>
<text text-anchor="middle" x="413.72" y="-138.3" font-family="Times,serif" font-size="14.00">file.py#ThirdClass</text>
</g>
<!-- file.py#ThirdClass#third_class_first_method -->
<g id="node3" class="node">
<title>file.py#ThirdClass#third_class_first_method</title>
<ellipse fill="none" stroke="black" cx="413.72" cy="-196" rx="217.96" ry="18"/>
<text text-anchor="middle" x="413.72" y="-192.3" font-family="Times,serif" font-size="14.00">file.py#ThirdClass#third_class_first_method</text>
</g>
<!-- file.py#ThirdClass#third_class_first_method#ThirdClassNestedClass -->
<g id="node4" class="node">
<title>file.py#ThirdClass#third_class_first_method#ThirdClassNestedClass</title>
<ellipse fill="none" stroke="black" cx="413.72" cy="-304" rx="332.54" ry="18"/>
<text text-anchor="middle" x="413.72" y="-300.3" font-family="Times,serif" font-size="14.00">file.py#ThirdClass#third_class_first_method#ThirdClassNestedClass</text>
</g>
<!-- file.py#ThirdClass#third_class_first_method#ThirdClassNestedClass#__init__ -->
<g id="node5" class="node">
<title>file.py#ThirdClass#third_class_first_method#ThirdClassNestedClass#__init__</title>
<ellipse fill="none" stroke="black" cx="413.72" cy="-250" rx="373.93" ry="18"/>
<text text-anchor="middle" x="413.72" y="-246.3" font-family="Times,serif" font-size="14.00">file.py#ThirdClass#third_class_first_method#ThirdClassNestedClass#__init__</text>
</g>
<!-- file.py#FirstClass -->
<g id="node7" class="node">
<title>file.py#FirstClass</title>
<ellipse fill="none" stroke="black" cx="1545.22" cy="-199" rx="94.48" ry="18"/>
<text text-anchor="middle" x="1545.22" y="-195.3" font-family="Times,serif" font-size="14.00">file.py#FirstClass</text>
</g>
<!-- file.py#ThirdClass#third_class_first_method#ThirdClassNestedClass#__init__&#45;&gt;file.py#FirstClass -->
<g id="edge2" class="edge">
<title>file.py#ThirdClass#third_class_first_method#ThirdClassNestedClass#__init__&#45;&gt;file.py#FirstClass</title>
<path fill="none" stroke="black" d="M776.71,-245.67C791.52,-241.06 803.46,-235.25 811.43,-228 829.05,-211.97 801.38,-190.54 819.43,-175 983.36,-33.96 1090.02,-164.15 1305.99,-175 1355.78,-177.5 1411.21,-182.93 1456.06,-187.99"/>
<polygon fill="black" stroke="black" points="1455.71,-191.47 1466.05,-189.13 1456.51,-184.52 1455.71,-191.47"/>
</g>
<!-- file.py#FirstClass#first_class_first_method -->
<g id="node8" class="node">
<title>file.py#FirstClass#first_class_first_method</title>
<ellipse fill="none" stroke="black" cx="1545.22" cy="-253" rx="211.46" ry="18"/>
<text text-anchor="middle" x="1545.22" y="-249.3" font-family="Times,serif" font-size="14.00">file.py#FirstClass#first_class_first_method</text>
</g>
<!-- file.py#ThirdClass#third_class_first_method#ThirdClassNestedClass#__init__&#45;&gt;file.py#FirstClass#first_class_first_method -->
<g id="edge6" class="edge">
<title>file.py#ThirdClass#third_class_first_method#ThirdClassNestedClass#__init__&#45;&gt;file.py#FirstClass#first_class_first_method</title>
<path fill="none" stroke="black" d="M774.06,-245.23C789.91,-240.77 802.77,-235.11 811.43,-228 822.44,-218.98 808.19,-205.71 819.43,-197 862.17,-163.89 1258.13,-171.87 1305.99,-197 1319.85,-204.28 1312.6,-217.88 1325.99,-226 1335.24,-231.61 1345.11,-236.3 1355.36,-240.22"/>
<polygon fill="black" stroke="black" points="1354.27,-243.55 1364.87,-243.61 1356.62,-236.96 1354.27,-243.55"/>
</g>
<!-- file.py#SecondClass -->
<g id="node10" class="node">
<title>file.py#SecondClass</title>
<ellipse fill="none" stroke="black" cx="1062.71" cy="-335" rx="105.08" ry="18"/>
<text text-anchor="middle" x="1062.71" y="-331.3" font-family="Times,serif" font-size="14.00">file.py#SecondClass</text>
</g>
<!-- file.py#ThirdClass#third_class_first_method#ThirdClassNestedClass#__init__&#45;&gt;file.py#SecondClass -->
<g id="edge1" class="edge">
<title>file.py#ThirdClass#third_class_first_method#ThirdClassNestedClass#__init__&#45;&gt;file.py#SecondClass</title>
<path fill="none" stroke="black" d="M763.12,-256.48C784.04,-261.54 800.88,-268.23 811.43,-277 822.38,-286.09 808.69,-298.68 819.43,-308 861.47,-344.47 924.24,-350.6 975.35,-347.93"/>
<polygon fill="black" stroke="black" points="975.65,-351.42 985.41,-347.29 975.21,-344.44 975.65,-351.42"/>
</g>
<!-- file.py#SecondClass#second_class_first_method -->
<g id="node12" class="node">
<title>file.py#SecondClass#second_class_first_method</title>
<ellipse fill="none" stroke="black" cx="1062.71" cy="-281" rx="235.06" ry="18"/>
<text text-anchor="middle" x="1062.71" y="-277.3" font-family="Times,serif" font-size="14.00">file.py#SecondClass#second_class_first_method</text>
</g>
<!-- file.py#ThirdClass#third_class_first_method#ThirdClassNestedClass#__init__&#45;&gt;file.py#SecondClass#second_class_first_method -->
<g id="edge3" class="edge">
<title>file.py#ThirdClass#third_class_first_method#ThirdClassNestedClass#__init__&#45;&gt;file.py#SecondClass#second_class_first_method</title>
<path fill="none" stroke="black" d="M679.27,-262.68C736.97,-265.44 797.25,-268.33 852.44,-270.97"/>
<polygon fill="black" stroke="black" points="852.53,-274.48 862.69,-271.46 852.87,-267.49 852.53,-274.48"/>
</g>
<!-- file.py#ThirdClass#__init__ -->
<g id="node6" class="node">
<title>file.py#ThirdClass#__init__</title>
<ellipse fill="none" stroke="black" cx="413.72" cy="-88" rx="137.58" ry="18"/>
<text text-anchor="middle" x="413.72" y="-84.3" font-family="Times,serif" font-size="14.00">file.py#ThirdClass#__init__</text>
</g>
<!-- file.py#FirstClass#__init__ -->
<g id="node9" class="node">
<title>file.py#FirstClass#__init__</title>
<ellipse fill="none" stroke="black" cx="1545.22" cy="-145" rx="135.38" ry="18"/>
<text text-anchor="middle" x="1545.22" y="-141.3" font-family="Times,serif" font-size="14.00">file.py#FirstClass#__init__</text>
</g>
<!-- file.py#SecondClass#__init__ -->
<g id="node11" class="node">
<title>file.py#SecondClass#__init__</title>
<ellipse fill="none" stroke="black" cx="1062.71" cy="-227" rx="146.47" ry="18"/>
<text text-anchor="middle" x="1062.71" y="-223.3" font-family="Times,serif" font-size="14.00">file.py#SecondClass#__init__</text>
</g>
<!-- file.py#SecondClass#__init__&#45;&gt;file.py#FirstClass -->
<g id="edge4" class="edge">
<title>file.py#SecondClass#__init__&#45;&gt;file.py#FirstClass</title>
<path fill="none" stroke="black" d="M1195.33,-219.33C1274.15,-214.74 1372.72,-208.99 1444.97,-204.78"/>
<polygon fill="black" stroke="black" points="1445.2,-208.28 1454.98,-204.2 1444.79,-201.29 1445.2,-208.28"/>
</g>
<!-- file.py#SecondClass#second_class_first_method&#45;&gt;file.py#FirstClass#first_class_first_method -->
<g id="edge5" class="edge">
<title>file.py#SecondClass#second_class_first_method&#45;&gt;file.py#FirstClass#first_class_first_method</title>
<path fill="none" stroke="black" d="M1250.52,-270.11C1286.55,-268.01 1324.27,-265.82 1360.21,-263.72"/>
<polygon fill="black" stroke="black" points="1360.52,-267.21 1370.3,-263.13 1360.11,-260.22 1360.52,-267.21"/>
</g>
</g>
</svg>
