<?xml version="1.0" encoding="UTF-8" standalone="no"?>
<!DOCTYPE svg PUBLIC "-//W3C//DTD SVG 1.1//EN"
 "http://www.w3.org/Graphics/SVG/1.1/DTD/svg11.dtd">
<!-- Generated by graphviz version 2.50.0 (0)
 -->
<!-- Title: G Pages: 1 -->
<svg width="1834pt" height="423pt"
 viewBox="0.00 0.00 1834.35 423.00" xmlns="http://www.w3.org/2000/svg" xmlns:xlink="http://www.w3.org/1999/xlink">
<g id="graph0" class="graph" transform="scale(1 1) rotate(0) translate(4 419)">
<title>G</title>
<polygon fill="white" stroke="transparent" points="-4,4 -4,-419 1830.35,-419 1830.35,4 -4,4"/>
<g id="clust1" class="cluster">
<title>cluster_file.py</title>
<polygon fill="none" stroke="black" points="8,-8 8,-407 1818.35,-407 1818.35,-8 8,-8"/>
<text text-anchor="middle" x="913.17" y="-391.8" font-family="Times,serif" font-size="14.00">file.py</text>
</g>
<!-- file.py#ThirdClass#third_class_first_method -->
<g id="node1" class="node">
<title>file.py#ThirdClass#third_class_first_method</title>
<ellipse fill="none" stroke="black" cx="389.72" cy="-358" rx="258.85" ry="18"/>
<text text-anchor="middle" x="389.72" y="-354.3" font-family="Times,serif" font-size="14.00">file.py#ThirdClass#function third_class_first_method</text>
</g>
<!-- file.py#ThirdClass#third_class_first_method#ThirdClassNestedClass#__init__ -->
<g id="node2" class="node">
<title>file.py#ThirdClass#third_class_first_method#ThirdClassNestedClass#__init__</title>
<ellipse fill="none" stroke="black" cx="389.72" cy="-304" rx="373.93" ry="18"/>
<text text-anchor="middle" x="389.72" y="-300.3" font-family="Times,serif" font-size="14.00">file.py#ThirdClass#third_class_first_method#ThirdClassNestedClass#__init__</text>
</g>
<!-- file.py##SecondClass -->
<g id="node5" class="node">
<title>file.py##SecondClass</title>
<ellipse fill="none" stroke="black" cx="1034.71" cy="-284" rx="139.18" ry="18"/>
<text text-anchor="middle" x="1034.71" y="-280.3" font-family="Times,serif" font-size="14.00">file.py##class SecondClass</text>
</g>
<!-- file.py#ThirdClass#third_class_first_method#ThirdClassNestedClass#__init__&#45;&gt;file.py##SecondClass -->
<g id="edge2" class="edge">
<title>file.py#ThirdClass#third_class_first_method#ThirdClassNestedClass#__init__&#45;&gt;file.py##SecondClass</title>
<path fill="none" stroke="black" d="M704.21,-294.25C768.94,-292.24 834.11,-290.21 889.2,-288.49"/>
<polygon fill="black" stroke="black" points="889.49,-291.99 899.37,-288.18 889.27,-284.99 889.49,-291.99"/>
</g>
<!-- file.py##FirstClass -->
<g id="node7" class="node">
<title>file.py##FirstClass</title>
<ellipse fill="none" stroke="black" cx="1034.71" cy="-230" rx="128.08" ry="18"/>
<text text-anchor="middle" x="1034.71" y="-226.3" font-family="Times,serif" font-size="14.00">file.py##class FirstClass</text>
</g>
<!-- file.py#ThirdClass#third_class_first_method#ThirdClassNestedClass#__init__&#45;&gt;file.py##FirstClass -->
<g id="edge4" class="edge">
<title>file.py#ThirdClass#third_class_first_method#ThirdClassNestedClass#__init__&#45;&gt;file.py##FirstClass</title>
<path fill="none" stroke="black" d="M692.81,-293.41C716.94,-289.15 740.74,-283.76 763.43,-277 780.97,-271.77 782.01,-262.6 799.43,-257 831.72,-246.63 867.64,-240.14 901.46,-236.11"/>
<polygon fill="black" stroke="black" points="901.86,-239.58 911.4,-234.99 901.07,-232.63 901.86,-239.58"/>
</g>
<!-- file.py#FirstClass#first_class_first_method -->
<g id="node9" class="node">
<title>file.py#FirstClass#first_class_first_method</title>
<ellipse fill="none" stroke="black" cx="1558.17" cy="-339" rx="252.36" ry="18"/>
<text text-anchor="middle" x="1558.17" y="-335.3" font-family="Times,serif" font-size="14.00">file.py#FirstClass#function first_class_first_method</text>
</g>
<!-- file.py#ThirdClass#third_class_first_method#ThirdClassNestedClass#__init__&#45;&gt;file.py#FirstClass#first_class_first_method -->
<g id="edge5" class="edge">
<title>file.py#ThirdClass#third_class_first_method#ThirdClassNestedClass#__init__&#45;&gt;file.py#FirstClass#first_class_first_method</title>
<path fill="none" stroke="black" d="M707.53,-313.51C898.96,-319.25 1139.15,-326.46 1315.27,-331.74"/>
<polygon fill="black" stroke="black" points="1315.36,-335.25 1325.46,-332.05 1315.57,-328.25 1315.36,-335.25"/>
</g>
<!-- file.py#SecondClass#second_class_first_method -->
<g id="node11" class="node">
<title>file.py#SecondClass#second_class_first_method</title>
<ellipse fill="none" stroke="black" cx="1034.71" cy="-358" rx="235.06" ry="18"/>
<text text-anchor="middle" x="1034.71" y="-354.3" font-family="Times,serif" font-size="14.00">file.py#SecondClass#second_class_first_method</text>
</g>
<!-- file.py#ThirdClass#third_class_first_method#ThirdClassNestedClass#__init__&#45;&gt;file.py#SecondClass#second_class_first_method -->
<g id="edge1" class="edge">
<title>file.py#ThirdClass#third_class_first_method#ThirdClassNestedClass#__init__&#45;&gt;file.py#SecondClass#second_class_first_method</title>
<path fill="none" stroke="black" d="M607.1,-318.67C658.37,-322.43 712.85,-326.64 763.43,-331 803.06,-334.41 845.92,-338.51 885.58,-342.47"/>
<polygon fill="black" stroke="black" points="885.29,-345.96 895.59,-343.47 885.99,-338.99 885.29,-345.96"/>
</g>
<!-- file.py#SecondClass#__init__ -->
<g id="node3" class="node">
<title>file.py#SecondClass#__init__</title>
<ellipse fill="none" stroke="black" cx="389.72" cy="-250" rx="146.47" ry="18"/>
<text text-anchor="middle" x="389.72" y="-246.3" font-family="Times,serif" font-size="14.00">file.py#SecondClass#__init__</text>
</g>
<!-- file.py#SecondClass#__init__&#45;&gt;file.py##FirstClass -->
<g id="edge6" class="edge">
<title>file.py#SecondClass#__init__&#45;&gt;file.py##FirstClass</title>
<path fill="none" stroke="black" d="M531.83,-245.61C641.14,-242.21 791.6,-237.53 899.22,-234.18"/>
<polygon fill="black" stroke="black" points="899.61,-237.67 909.49,-233.86 899.39,-230.68 899.61,-237.67"/>
</g>
<!-- file.py#ThirdClass#__init__ -->
<g id="node4" class="node">
<title>file.py#ThirdClass#__init__</title>
<ellipse fill="none" stroke="black" cx="389.72" cy="-196" rx="178.97" ry="18"/>
<text text-anchor="middle" x="389.72" y="-192.3" font-family="Times,serif" font-size="14.00">file.py#ThirdClass#function __init__</text>
</g>
<!-- file.py##ThirdClass -->
<g id="node6" class="node">
<title>file.py##ThirdClass</title>
<ellipse fill="none" stroke="black" cx="389.72" cy="-142" rx="129.98" ry="18"/>
<text text-anchor="middle" x="389.72" y="-138.3" font-family="Times,serif" font-size="14.00">file.py##class ThirdClass</text>
</g>
<!-- file.py#ThirdClass#third_class_first_method#ThirdClassNestedClass -->
<g id="node8" class="node">
<title>file.py#ThirdClass#third_class_first_method#ThirdClassNestedClass</title>
<ellipse fill="none" stroke="black" cx="389.72" cy="-88" rx="358.54" ry="18"/>
<text text-anchor="middle" x="389.72" y="-84.3" font-family="Times,serif" font-size="14.00">file.py#ThirdClass#third_class_first_method#class ThirdClassNestedClass</text>
</g>
<!-- file.py#FirstClass#__init__ -->
<g id="node10" class="node">
<title>file.py#FirstClass#__init__</title>
<ellipse fill="none" stroke="black" cx="389.72" cy="-34" rx="176.27" ry="18"/>
<text text-anchor="middle" x="389.72" y="-30.3" font-family="Times,serif" font-size="14.00">file.py#FirstClass#function __init__</text>
</g>
<!-- file.py#SecondClass#second_class_first_method&#45;&gt;file.py#FirstClass#first_class_first_method -->
<g id="edge3" class="edge">
<title>file.py#SecondClass#second_class_first_method&#45;&gt;file.py#FirstClass#first_class_first_method</title>
<path fill="none" stroke="black" d="M1247.43,-350.29C1272.34,-349.38 1297.87,-348.45 1323.06,-347.53"/>
<polygon fill="black" stroke="black" points="1323.21,-351.03 1333.07,-347.17 1322.95,-344.03 1323.21,-351.03"/>
</g>
</g>
</svg>
