<?xml version="1.0" encoding="UTF-8" standalone="no"?>
<!DOCTYPE svg PUBLIC "-//W3C//DTD SVG 1.1//EN"
 "http://www.w3.org/Graphics/SVG/1.1/DTD/svg11.dtd">
<!-- Generated by graphviz version 2.50.0 (0)
 -->
<!-- Title: G Pages: 1 -->
<svg width="746pt" height="522pt"
 viewBox="0.00 0.00 745.64 522.00" xmlns="http://www.w3.org/2000/svg" xmlns:xlink="http://www.w3.org/1999/xlink">
<g id="graph0" class="graph" transform="scale(1 1) rotate(0) translate(4 518)">
<title>G</title>
<polygon fill="white" stroke="transparent" points="-4,4 -4,-518 741.64,-518 741.64,4 -4,4"/>
<g id="clust2" class="cluster">
<title>cluster_file_two.py</title>
<polygon fill="none" stroke="black" points="8,-284 8,-506 729.64,-506 729.64,-284 8,-284"/>
<text text-anchor="middle" x="368.82" y="-490.8" font-family="Times,serif" font-size="14.00">file_two.py</text>
</g>
<g id="clust3" class="cluster">
<title>cluster_file_two.py#SecondClass</title>
<polygon fill="none" stroke="black" points="164.89,-292 164.89,-475 721.64,-475 721.64,-292 164.89,-292"/>
<text text-anchor="middle" x="443.27" y="-459.8" font-family="Times,serif" font-size="14.00">file_two.py#SecondClass</text>
</g>
<g id="clust4" class="cluster">
<title>cluster_file_one.py</title>
<polygon fill="none" stroke="black" points="195.24,-8 195.24,-276 691.29,-276 691.29,-8 195.24,-8"/>
<text text-anchor="middle" x="443.27" y="-260.8" font-family="Times,serif" font-size="14.00">file_one.py</text>
</g>
<g id="clust5" class="cluster">
<title>cluster_file_one.py#FirstClass</title>
<polygon fill="none" stroke="black" points="203.24,-62 203.24,-245 683.29,-245 683.29,-62 203.24,-62"/>
<text text-anchor="middle" x="443.27" y="-229.8" font-family="Times,serif" font-size="14.00">file_one.py#FirstClass</text>
</g>
<!-- file_two.py -->
<g id="node1" class="node">
<title>file_two.py</title>
<ellipse fill="none" stroke="black" cx="76.44" cy="-341" rx="60.39" ry="18"/>
<text text-anchor="middle" x="76.44" y="-337.3" font-family="Times,serif" font-size="14.00">file_two.py</text>
</g>
<!-- file_two.py#SecondClass -->
<g id="node2" class="node">
<title>file_two.py#SecondClass</title>
<ellipse fill="none" stroke="black" cx="443.27" cy="-426" rx="126.98" ry="18"/>
<text text-anchor="middle" x="443.27" y="-422.3" font-family="Times,serif" font-size="14.00">file_two.py#SecondClass</text>
</g>
<!-- file_two.py&#45;&gt;file_two.py#SecondClass -->
<g id="edge1" class="edge">
<title>file_two.py&#45;&gt;file_two.py#SecondClass</title>
<path fill="none" stroke="black" d="M97.1,-358.17C113.89,-371.76 139.31,-389.91 164.89,-399 209.49,-414.84 260.5,-422.52 306.52,-425.96"/>
<polygon fill="black" stroke="black" points="306.35,-429.46 316.56,-426.65 306.83,-422.47 306.35,-429.46"/>
</g>
<!-- file_two.py#SecondClass#second_class_second_method -->
<g id="node3" class="node">
<title>file_two.py#SecondClass#second_class_second_method</title>
<ellipse fill="none" stroke="black" cx="443.27" cy="-372" rx="270.25" ry="18"/>
<text text-anchor="middle" x="443.27" y="-368.3" font-family="Times,serif" font-size="14.00">file_two.py#SecondClass#second_class_second_method</text>
</g>
<!-- file_two.py&#45;&gt;file_two.py#SecondClass#second_class_second_method -->
<g id="edge4" class="edge">
<title>file_two.py&#45;&gt;file_two.py#SecondClass#second_class_second_method</title>
<path fill="none" stroke="black" d="M134.85,-345.88C170.44,-348.9 218.27,-352.97 265.59,-356.99"/>
<polygon fill="black" stroke="black" points="265.41,-360.48 275.67,-357.84 266,-353.51 265.41,-360.48"/>
</g>
<!-- file_one.py#FirstClass -->
<g id="node6" class="node">
<title>file_one.py#FirstClass</title>
<ellipse fill="none" stroke="black" cx="443.27" cy="-196" rx="115.08" ry="18"/>
<text text-anchor="middle" x="443.27" y="-192.3" font-family="Times,serif" font-size="14.00">file_one.py#FirstClass</text>
</g>
<!-- file_two.py&#45;&gt;file_one.py#FirstClass -->
<g id="edge2" class="edge">
<title>file_two.py&#45;&gt;file_one.py#FirstClass</title>
<path fill="none" stroke="black" d="M101.51,-324.39C118.63,-313.08 142.49,-298.34 164.89,-288 233.58,-256.28 316.36,-230.3 373.51,-214.13"/>
<polygon fill="black" stroke="black" points="374.48,-217.5 383.17,-211.43 372.59,-210.76 374.48,-217.5"/>
</g>
<!-- file_one.py#FirstClass#first_class_first_method -->
<g id="node8" class="node">
<title>file_one.py#FirstClass#first_class_first_method</title>
<ellipse fill="none" stroke="black" cx="443.27" cy="-88" rx="232.06" ry="18"/>
<text text-anchor="middle" x="443.27" y="-84.3" font-family="Times,serif" font-size="14.00">file_one.py#FirstClass#first_class_first_method</text>
</g>
<!-- file_two.py&#45;&gt;file_one.py#FirstClass#first_class_first_method -->
<g id="edge3" class="edge">
<title>file_two.py&#45;&gt;file_one.py#FirstClass#first_class_first_method</title>
<path fill="none" stroke="black" d="M78.37,-322.92C81.66,-279.04 96.7,-166.77 164.89,-115 176.47,-106.21 189.16,-99.1 202.54,-93.42"/>
<polygon fill="black" stroke="black" points="203.9,-96.65 211.9,-89.71 201.32,-90.14 203.9,-96.65"/>
</g>
<!-- file_two.py#SecondClass#__init__ -->
<g id="node4" class="node">
<title>file_two.py#SecondClass#__init__</title>
<ellipse fill="none" stroke="black" cx="443.27" cy="-318" rx="167.87" ry="18"/>
<text text-anchor="middle" x="443.27" y="-314.3" font-family="Times,serif" font-size="14.00">file_two.py#SecondClass#__init__</text>
</g>
<!-- file_one.py -->
<g id="node5" class="node">
<title>file_one.py</title>
<ellipse fill="none" stroke="black" cx="443.27" cy="-34" rx="59.59" ry="18"/>
<text text-anchor="middle" x="443.27" y="-30.3" font-family="Times,serif" font-size="14.00">file_one.py</text>
</g>
<!-- file_one.py#FirstClass#__init__ -->
<g id="node7" class="node">
<title>file_one.py#FirstClass#__init__</title>
<ellipse fill="none" stroke="black" cx="443.27" cy="-142" rx="155.97" ry="18"/>
<text text-anchor="middle" x="443.27" y="-138.3" font-family="Times,serif" font-size="14.00">file_one.py#FirstClass#__init__</text>
</g>
</g>
</svg>
