<?xml version="1.0" encoding="UTF-8" standalone="no"?>
<!DOCTYPE svg PUBLIC "-//W3C//DTD SVG 1.1//EN"
 "http://www.w3.org/Graphics/SVG/1.1/DTD/svg11.dtd">
<!-- Generated by graphviz version 2.50.0 (0)
 -->
<!-- Title: G Pages: 1 -->
<svg width="1116pt" height="344pt"
 viewBox="0.00 0.00 1115.91 344.00" xmlns="http://www.w3.org/2000/svg" xmlns:xlink="http://www.w3.org/1999/xlink">
<g id="graph0" class="graph" transform="scale(1 1) rotate(0) translate(4 340)">
<title>G</title>
<polygon fill="white" stroke="transparent" points="-4,4 -4,-340 1111.91,-340 1111.91,4 -4,4"/>
<g id="clust1" class="cluster">
<title>cluster_file_two.py</title>
<polygon fill="none" stroke="black" points="8,-199 8,-328 1099.91,-328 1099.91,-199 8,-199"/>
<text text-anchor="middle" x="553.95" y="-312.8" font-family="Times,serif" font-size="14.00">file_two.py</text>
</g>
<g id="clust2" class="cluster">
<title>cluster_file_one.py</title>
<polygon fill="none" stroke="black" points="499.61,-8 499.61,-191 1061.56,-191 1061.56,-8 499.61,-8"/>
<text text-anchor="middle" x="780.59" y="-175.8" font-family="Times,serif" font-size="14.00">file_one.py</text>
</g>
<!-- file_two.py#SecondClass#__init__ -->
<g id="node1" class="node">
<title>file_two.py#SecondClass#__init__</title>
<ellipse fill="none" stroke="black" cx="224.63" cy="-279" rx="208.76" ry="18"/>
<text text-anchor="middle" x="224.63" y="-275.3" font-family="Times,serif" font-size="14.00">file_two.py#SecondClass#function __init__</text>
</g>
<!-- file_two.py##SecondClass -->
<g id="node2" class="node">
<title>file_two.py##SecondClass</title>
<ellipse fill="none" stroke="black" cx="780.59" cy="-225" rx="160.57" ry="18"/>
<text text-anchor="middle" x="780.59" y="-221.3" font-family="Times,serif" font-size="14.00">file_two.py##class SecondClass</text>
</g>
<!-- file_two.py#SecondClass#second_class_second_method -->
<g id="node3" class="node">
<title>file_two.py#SecondClass#second_class_second_method</title>
<ellipse fill="none" stroke="black" cx="780.59" cy="-279" rx="311.14" ry="18"/>
<text text-anchor="middle" x="780.59" y="-275.3" font-family="Times,serif" font-size="14.00">file_two.py#SecondClass#function second_class_second_method</text>
</g>
<!-- file_two.py# -->
<g id="node4" class="node">
<title>file_two.py#</title>
<ellipse fill="none" stroke="black" cx="224.63" cy="-225" rx="68.49" ry="18"/>
<text text-anchor="middle" x="224.63" y="-221.3" font-family="Times,serif" font-size="14.00">file_two.py#</text>
</g>
<!-- file_two.py#&#45;&gt;file_two.py##SecondClass -->
<g id="edge2" class="edge">
<title>file_two.py#&#45;&gt;file_two.py##SecondClass</title>
<path fill="none" stroke="black" d="M293,-225C371.15,-225 502.89,-225 609.6,-225"/>
<polygon fill="black" stroke="black" points="609.85,-228.5 619.85,-225 609.85,-221.5 609.85,-228.5"/>
</g>
<!-- file_two.py#&#45;&gt;file_two.py#SecondClass#second_class_second_method -->
<g id="edge1" class="edge">
<title>file_two.py#&#45;&gt;file_two.py#SecondClass#second_class_second_method</title>
<path fill="none" stroke="black" d="M287.17,-232.23C336.4,-237.91 407.22,-245.86 469.26,-252 508.7,-255.9 551,-259.78 591.27,-263.33"/>
<polygon fill="black" stroke="black" points="591.2,-266.84 601.47,-264.23 591.81,-259.87 591.2,-266.84"/>
</g>
<!-- file_one.py#FirstClass#first_class_first_method -->
<g id="node5" class="node">
<title>file_one.py#FirstClass#first_class_first_method</title>
<ellipse fill="none" stroke="black" cx="780.59" cy="-142" rx="272.95" ry="18"/>
<text text-anchor="middle" x="780.59" y="-138.3" font-family="Times,serif" font-size="14.00">file_one.py#FirstClass#function first_class_first_method</text>
</g>
<!-- file_two.py#&#45;&gt;file_one.py#FirstClass#first_class_first_method -->
<g id="edge3" class="edge">
<title>file_two.py#&#45;&gt;file_one.py#FirstClass#first_class_first_method</title>
<path fill="none" stroke="black" d="M284.39,-216.2C373.27,-202.88 543.79,-177.33 659.62,-159.97"/>
<polygon fill="black" stroke="black" points="660.23,-163.42 669.6,-158.48 659.2,-156.5 660.23,-163.42"/>
</g>
<!-- file_one.py##FirstClass -->
<g id="node6" class="node">
<title>file_one.py##FirstClass</title>
<ellipse fill="none" stroke="black" cx="780.59" cy="-88" rx="148.67" ry="18"/>
<text text-anchor="middle" x="780.59" y="-84.3" font-family="Times,serif" font-size="14.00">file_one.py##class FirstClass</text>
</g>
<!-- file_two.py#&#45;&gt;file_one.py##FirstClass -->
<g id="edge4" class="edge">
<title>file_two.py#&#45;&gt;file_one.py##FirstClass</title>
<path fill="none" stroke="black" d="M246.25,-207.69C287.16,-180.19 382.15,-128.75 469.26,-106 520.89,-92.52 578.82,-85.42 630.53,-82.3"/>
<polygon fill="black" stroke="black" points="630.99,-85.78 640.78,-81.73 630.6,-78.79 630.99,-85.78"/>
</g>
<!-- file_two.py#&#45;&gt;file_one.py##FirstClass -->
<g id="edge5" class="edge">
<title>file_two.py#&#45;&gt;file_one.py##FirstClass</title>
<path fill="none" stroke="black" d="M262.57,-209.83C309.09,-186.64 392.25,-144.11 469.26,-124 525.42,-109.34 589.03,-102.22 643.97,-98.24"/>
<polygon fill="black" stroke="black" points="644.4,-101.72 654.13,-97.53 643.91,-94.74 644.4,-101.72"/>
</g>
<!-- file_one.py#FirstClass#__init__ -->
<g id="node7" class="node">
<title>file_one.py#FirstClass#__init__</title>
<ellipse fill="none" stroke="black" cx="780.59" cy="-34" rx="196.87" ry="18"/>
<text text-anchor="middle" x="780.59" y="-30.3" font-family="Times,serif" font-size="14.00">file_one.py#FirstClass#function __init__</text>
</g>
</g>
</svg>
